# xmcd CD database file
# Copyright (C) 1997 Ti Kan
#
# Track frame offsets:
#  150
#  14567
#  27560
#  40175
#  56562
#  71020
#  84435
#  96217
#  112440
#  128477
#
# Disc length: 1885 seconds
#
# Revision: 1
# Processed by: cddbd v1.4b41PL1 Copyright (c) Steve Scherf et al.
# Submitted via: CDWizzard Release:4.32
#
DISCID=89075b0a
DTITLE=The Country Dance Kings - Best of Country Line Dance
DYEAR=1900
DGENRE=
TTITLE0=Rock My World (Little Country Girl)
TTITLE1=If Bubba Can Dance (I Can Too)
TTITLE2=What's It To You
TTITLE3=Fast As You
TTITLE4=Chattahoochie
TTITLE5=One More Last Chance
TTITLE6=Holdin' Heaven
TTITLE7=He Thinks He'll Keep Her
TTITLE8=God Bless Texas
TTITLE9=Indian Outlaw
EXTD=
EXTT0=
EXTT1=
EXTT2=
EXTT3=
EXTT4=
EXTT5=
EXTT6=
EXTT7=
EXTT8=
EXTT9=
PLAYORDER=
